<?xml version="1.0" encoding="utf-8"?>
<!-- Generator: Adobe Illustrator 25.2.3, SVG Export Plug-In . SVG Version: 6.00 Build 0)  -->
<svg version="1.1" id="图层_1" xmlns="http://www.w3.org/2000/svg" xmlns:xlink="http://www.w3.org/1999/xlink" x="0px" y="0px"
	 viewBox="0 0 512 512" style="enable-background:new 0 0 512 512;" xml:space="preserve">
<style type="text/css">
	.st0{display:none;}
	.st1{display:inline;}
	.st2{fill:#7BD802;}
	.st3{fill:#00CC6A;}
	.st4{fill:#5462FF;}
	.st5{fill:#33AAE9;}
	.st6{fill:#3A1AB6;}
</style>
<g class="st0">
	<g class="st1">
		<polygon class="st2" points="428.5,45.2 256.1,217.7 83.5,45.2 166,45.2 256.1,135.1 345.9,45.2 		"/>
	</g>
	<g class="st1">
		<polygon class="st3" points="45.2,83.5 217.7,255.9 45.2,428.5 45.2,346 135.1,255.9 45.2,166.1 		"/>
	</g>
	<g class="st1">
		<polygon class="st4" points="83.5,466.8 255.9,294.3 428.5,466.8 346,466.8 255.9,376.9 166.1,466.8 		"/>
	</g>
	<g class="st1">
		<polygon class="st5" points="466.8,428.5 294.3,256.1 466.8,83.5 466.8,166 376.9,256.1 466.8,345.9 		"/>
	</g>
</g>
<path class="st6" d="M365.2,126.3c-27.1,9.2-40.1,25.8-49,51.6c-2.3,6.9-8,14.5-14.5,19.6l22.2,24.3l-70.5-50.4L58.8,32.6
	c0,0,14,93.1,18.9,127.4c3.4,24.2,9.3,35,27.9,46l7.5,4.1l32.1,17.3l-19.1-10.1l88,49.1l-0.6,1.3l-94.7-44.8
	c5,17.6,14.8,51.4,18.9,66.3c4.4,16.1,9.5,22,24.8,27.7l28.2,10.5l17.5-7l-22.2,15.1l-111,144c73.8-70,136.3-94.9,182-115.3
	c58.3-25.8,93.4-42.3,116.3-101.8c16.3-41.7,29.1-95.2,45.3-115.9l34.5-45.1C453.2,101.4,381.7,120.7,365.2,126.3"/>
</svg>
