<svg id="图层_1" data-name="图层 1" xmlns="http://www.w3.org/2000/svg" xmlns:xlink="http://www.w3.org/1999/xlink" viewBox="0 0 512 512"><defs><style>.cls-1{fill:url(#未命名的渐变_41);}.cls-2{fill:url(#未命名的渐变_42);}.cls-3{fill:url(#未命名的渐变_43);}.cls-4{fill:url(#未命名的渐变_44);}.cls-5{fill:url(#未命名的渐变_45);}.cls-6{fill:url(#未命名的渐变_46);}.cls-7{fill:url(#未命名的渐变_47);}.cls-8{fill:url(#未命名的渐变_48);}</style><linearGradient id="未命名的渐变_41" x1="391.08" y1="290.69" x2="391.08" y2="170.62" gradientTransform="matrix(1, 0, 0, -1, 0, 514)" gradientUnits="userSpaceOnUse"><stop offset="0" stop-color="#f75061"/><stop offset="1" stop-color="#b53052"/></linearGradient><linearGradient id="未命名的渐变_42" x1="316.11" y1="461.15" x2="316.11" y2="195.09" gradientTransform="matrix(1, 0, 0, -1, 0, 514)" gradientUnits="userSpaceOnUse"><stop offset="0" stop-color="#df3b54"/><stop offset="1" stop-color="#fe6f69"/></linearGradient><linearGradient id="未命名的渐变_43" x1="292.7" y1="123.46" x2="292.7" y2="461.15" gradientTransform="matrix(1, 0, 0, -1, 0, 514)" gradientUnits="userSpaceOnUse"><stop offset="0" stop-color="#fe6f69"/><stop offset="1" stop-color="#d93150"/></linearGradient><linearGradient id="未命名的渐变_44" x1="111.77" y1="100.46" x2="286.92" y2="201.59" gradientTransform="matrix(1, 0, 0, -1, 0, 514)" gradientUnits="userSpaceOnUse"><stop offset="0.21" stop-color="#c5344c"/><stop offset="0.33" stop-color="#bc334c"/><stop offset="0.53" stop-color="#a4314b"/><stop offset="0.79" stop-color="#7c2e49"/><stop offset="1" stop-color="#562b48"/></linearGradient><linearGradient id="未命名的渐变_45" x1="127.04" y1="73.86" x2="306.33" y2="177.37" gradientTransform="matrix(1, 0, 0, -1, 0, 514)" gradientUnits="userSpaceOnUse"><stop offset="0.14" stop-color="#bb334c"/><stop offset="0.28" stop-color="#b2324c"/><stop offset="0.52" stop-color="#9a304b"/><stop offset="0.81" stop-color="#722d49"/><stop offset="1" stop-color="#562b48"/></linearGradient><linearGradient id="未命名的渐变_46" x1="113.81" y1="65.95" x2="318.32" y2="120.75" gradientTransform="matrix(1, 0, 0, -1, 0, 514)" gradientUnits="userSpaceOnUse"><stop offset="0" stop-color="#bd334c"/><stop offset="0.16" stop-color="#b4324c"/><stop offset="0.43" stop-color="#9c304b"/><stop offset="0.76" stop-color="#742d49"/><stop offset="1" stop-color="#532a48"/></linearGradient><linearGradient id="未命名的渐变_47" x1="94.68" y1="377.03" x2="332.97" y2="138.74" gradientTransform="matrix(1, 0, 0, -1, 0, 514)" gradientUnits="userSpaceOnUse"><stop offset="0" stop-color="#ef485e"/><stop offset="0.16" stop-color="#e6435c"/><stop offset="0.41" stop-color="#ce3556"/><stop offset="0.5" stop-color="#c43053"/><stop offset="0.7" stop-color="#a33052"/><stop offset="1" stop-color="#6e3051"/></linearGradient><linearGradient id="未命名的渐变_48" x1="114.42" y1="357.33" x2="259.7" y2="321.1" gradientTransform="matrix(1, 0, 0, -1, 0, 514)" gradientUnits="userSpaceOnUse"><stop offset="0" stop-color="#f75061"/><stop offset="1" stop-color="#d33053"/></linearGradient></defs><path class="cls-1" d="M412.86,232.05v1.19h0a176.25,176.25,0,0,1-43.55,110.14,240.18,240.18,0,0,0,25.41-110.73,9.08,9.08,0,0,1,18.14-.6Z"/><path class="cls-2" d="M360,318.91c.94-3.25-.35-8.73-.77-12-.52-4.11-1.29-8.22-2.23-12.33a103,103,0,0,0-8.81-23.19c-6.85-13-17-22.93-27.47-32.86C293,212.28,271.06,177,264.22,139.11c-.26-1.54-.52-3.08-.77-4.71a154.44,154.44,0,0,1,9.84-81.55A244.78,244.78,0,0,1,360,318.91Z"/><path class="cls-3" d="M360,318.91a196.09,196.09,0,0,1-42.45,71.63,88.22,88.22,0,0,0-19-94.48c-8.3-8.47-18.31-15.06-27.64-22.42a109.22,109.22,0,0,1-24.65-27.56c-11.81-18.91-18.31-41.16-20.45-63.58a158.55,158.55,0,0,1,1.54-42.19,152.76,152.76,0,0,1,7.19-27.3A160.17,160.17,0,0,1,273.2,52.85a154.44,154.44,0,0,0-9.84,81.55c.26,1.54.51,3.17.77,4.71,6.93,37.91,28.75,73.17,56.48,99.44,10.44,9.93,20.63,19.77,27.47,32.86a103,103,0,0,1,8.82,23.19,85.77,85.77,0,0,1,2.22,12.33C359.63,310.26,361,315.74,360,318.91Z"/><path class="cls-4" d="M300.16,335.34c-11.73,19-29.44,32.18-50.24,39.79-13.69,5.05-28.15,8-42.61,10.53-15.07,2.65-30.3,5-45.53,6.33s-30.21,1.2-45.44.69q-8.61-.27-17.2-1a827.46,827.46,0,0,0,66.75-51.35c1.54-1.2,3.08-2.39,4.7-3.51A112.78,112.78,0,0,1,216,318.14c3.5-.6,7.1-1,10.69-1.37,2.31-.17,4.62-.26,7-.34a110.68,110.68,0,0,1,21.39,1.71h.09A128.21,128.21,0,0,1,291,330,86.94,86.94,0,0,1,300.16,335.34Z"/><path class="cls-5" d="M317.62,390.62a123.89,123.89,0,0,1-92.43,33.72,293,293,0,0,1-81.13-13.86,298,298,0,0,1-44.92-18.66q8.6.76,17.2,1c15.23.51,30.21.68,45.44-.69s30.46-3.68,45.53-6.33c14.37-2.57,28.84-5.39,42.61-10.53,20.71-7.7,38.51-20.88,50.24-39.79a50.83,50.83,0,0,1,7.36,6.08C320.1,354,323.52,374.11,317.62,390.62Z"/><path class="cls-6" d="M317.62,390.62a236.24,236.24,0,0,1-201.54,65.9,263.22,263.22,0,0,0,28-46,293,293,0,0,0,81.13,13.86A124.24,124.24,0,0,0,317.62,390.62Z"/><path class="cls-7" d="M317.62,390.62c5.9-16.51,2.48-36.63-10.1-49.12a51.49,51.49,0,0,0-7.36-6.08,75.7,75.7,0,0,0-9.16-5.3,128.21,128.21,0,0,0-35.77-11.81h-.09a174.12,174.12,0,0,1-107-63.93,144.47,144.47,0,0,1-20.62-150.27A213.36,213.36,0,0,0,246.42,246.25a104.76,104.76,0,0,0,24.64,27.56c9.33,7.36,19.26,13.95,27.64,22.42a88.44,88.44,0,0,1,23.54,44.41A90.06,90.06,0,0,1,317.62,390.62Z"/><path class="cls-8" d="M246.42,246.17A213.14,213.14,0,0,1,127.55,104a318.88,318.88,0,0,1,100,36.37A158.7,158.7,0,0,0,226,182.58C228.1,205,234.52,227.34,246.42,246.17Z"/></svg>