<svg id="图层_1" data-name="图层 1" xmlns="http://www.w3.org/2000/svg" xmlns:xlink="http://www.w3.org/1999/xlink" viewBox="0 0 366.6 474.78"><defs><style>.cls-1{fill:url(#未命名的渐变);}.cls-2{fill:url(#未命名的渐变_2);}.cls-3{fill:url(#未命名的渐变_3);}.cls-4{fill:url(#未命名的渐变_4);}.cls-5{fill:url(#未命名的渐变_5);}.cls-6{fill:url(#未命名的渐变_6);}.cls-7{fill:url(#未命名的渐变_7);}.cls-8{fill:url(#未命名的渐变_8);}</style><linearGradient id="未命名的渐变" x1="413.85" y1="294.21" x2="413.85" y2="153.9" gradientTransform="matrix(1, 0, 0, -1, 0, 512)" gradientUnits="userSpaceOnUse"><stop offset="0" stop-color="#f75061"/><stop offset="1" stop-color="#b53052"/></linearGradient><linearGradient id="未命名的渐变_2" x1="326.24" y1="493.4" x2="326.24" y2="182.5" gradientTransform="matrix(1, 0, 0, -1, 0, 512)" gradientUnits="userSpaceOnUse"><stop offset="0" stop-color="#df3b54"/><stop offset="1" stop-color="#fe6f69"/></linearGradient><linearGradient id="未命名的渐变_3" x1="298.88" y1="98.8" x2="298.88" y2="493.4" gradientTransform="matrix(1, 0, 0, -1, 0, 512)" gradientUnits="userSpaceOnUse"><stop offset="0" stop-color="#fe6f69"/><stop offset="1" stop-color="#d93150"/></linearGradient><linearGradient id="未命名的渐变_4" x1="87.47" y1="71.92" x2="292.13" y2="190.09" gradientTransform="matrix(1, 0, 0, -1, 0, 512)" gradientUnits="userSpaceOnUse"><stop offset="0.21" stop-color="#c5344c"/><stop offset="0.33" stop-color="#bc334c"/><stop offset="0.53" stop-color="#a4314b"/><stop offset="0.79" stop-color="#7c2e49"/><stop offset="1" stop-color="#562b48"/></linearGradient><linearGradient id="未命名的渐变_5" x1="105.3" y1="40.83" x2="314.81" y2="161.79" gradientTransform="matrix(1, 0, 0, -1, 0, 512)" gradientUnits="userSpaceOnUse"><stop offset="0.14" stop-color="#bb334c"/><stop offset="0.28" stop-color="#b2324c"/><stop offset="0.52" stop-color="#9a304b"/><stop offset="0.81" stop-color="#722d49"/><stop offset="1" stop-color="#562b48"/></linearGradient><linearGradient id="未命名的渐变_6" x1="89.85" y1="31.6" x2="328.82" y2="95.63" gradientTransform="matrix(1, 0, 0, -1, 0, 512)" gradientUnits="userSpaceOnUse"><stop offset="0" stop-color="#bd334c"/><stop offset="0.16" stop-color="#b4324c"/><stop offset="0.43" stop-color="#9c304b"/><stop offset="0.76" stop-color="#742d49"/><stop offset="1" stop-color="#532a48"/></linearGradient><linearGradient id="未命名的渐变_7" x1="67.5" y1="395.1" x2="345.95" y2="116.65" gradientTransform="matrix(1, 0, 0, -1, 0, 512)" gradientUnits="userSpaceOnUse"><stop offset="0" stop-color="#ef485e"/><stop offset="0.16" stop-color="#e6435c"/><stop offset="0.41" stop-color="#ce3556"/><stop offset="0.5" stop-color="#c43053"/><stop offset="0.7" stop-color="#a33052"/><stop offset="1" stop-color="#6e3051"/></linearGradient><linearGradient id="未命名的渐变_8" x1="90.56" y1="372.07" x2="260.32" y2="329.75" gradientTransform="matrix(1, 0, 0, -1, 0, 512)" gradientUnits="userSpaceOnUse"><stop offset="0" stop-color="#f75061"/><stop offset="1" stop-color="#d33053"/></linearGradient></defs><path class="cls-1" d="M439.3,228v1.4h0a206,206,0,0,1-50.9,128.7,280.78,280.78,0,0,0,29.7-129.4,10.61,10.61,0,0,1,21.2-.7Z" transform="translate(-72.7 -18.6)"/><path class="cls-2" d="M377.5,329.5c1.1-3.8-.4-10.2-.9-14a145.14,145.14,0,0,0-2.6-14.4A120.13,120.13,0,0,0,363.7,274c-8-15.2-19.9-26.8-32.1-38.4-32.4-30.7-58-71.9-66-116.2-.3-1.8-.6-3.6-.9-5.5a180.51,180.51,0,0,1,11.5-95.3A286,286,0,0,1,377.5,329.5Z" transform="translate(-72.7 -18.6)"/><path class="cls-3" d="M377.5,329.5a228.91,228.91,0,0,1-49.6,83.7,103.12,103.12,0,0,0-22.2-110.4c-9.7-9.9-21.4-17.6-32.3-26.2a127.69,127.69,0,0,1-28.8-32.2c-13.8-22.1-21.4-48.1-23.9-74.3a185,185,0,0,1,1.8-49.3,178.54,178.54,0,0,1,8.4-31.9,187.25,187.25,0,0,1,45.2-70.3,180.51,180.51,0,0,0-11.5,95.3c.3,1.8.6,3.7.9,5.5,8.1,44.3,33.6,85.5,66,116.2,12.2,11.6,24.1,23.1,32.1,38.4a120.13,120.13,0,0,1,10.3,27.1,98.66,98.66,0,0,1,2.6,14.4C377.1,319.4,378.7,325.8,377.5,329.5Z" transform="translate(-72.7 -18.6)"/><path class="cls-4" d="M307.6,348.7c-13.7,22.2-34.4,37.6-58.7,46.5-16,5.9-32.9,9.3-49.8,12.3-17.6,3.1-35.4,5.8-53.2,7.4s-35.3,1.4-53.1.8q-10-.3-20.1-1.2a966.74,966.74,0,0,0,78-60c1.8-1.4,3.6-2.8,5.5-4.1a131.85,131.85,0,0,1,53.1-21.8c4.1-.7,8.3-1.2,12.5-1.6,2.7-.2,5.4-.3,8.2-.4a130.46,130.46,0,0,1,25,2h.1a149.9,149.9,0,0,1,41.8,13.8A103.52,103.52,0,0,1,307.6,348.7Z" transform="translate(-72.7 -18.6)"/><path class="cls-5" d="M328,413.3a144.79,144.79,0,0,1-108,39.4,342,342,0,0,1-94.8-16.2,348,348,0,0,1-52.5-21.8q10,.9,20.1,1.2c17.8.6,35.3.8,53.1-.8s35.6-4.3,53.2-7.4c16.8-3,33.7-6.3,49.8-12.3,24.2-9,45-24.4,58.7-46.5a59,59,0,0,1,8.6,7.1C330.9,370.5,334.9,394,328,413.3Z" transform="translate(-72.7 -18.6)"/><path class="cls-6" d="M328,413.3a276,276,0,0,1-235.5,77,307.76,307.76,0,0,0,32.7-53.8A342,342,0,0,0,220,452.7,145.18,145.18,0,0,0,328,413.3Z" transform="translate(-72.7 -18.6)"/><path class="cls-7" d="M328,413.3c6.9-19.3,2.9-42.8-11.8-57.4a59,59,0,0,0-8.6-7.1,87.54,87.54,0,0,0-10.7-6.2,149.9,149.9,0,0,0-41.8-13.8H255c-49.2-8.6-94.3-35.3-125-74.7A168.82,168.82,0,0,1,105.9,78.5,249.32,249.32,0,0,0,244.8,244.6a122.39,122.39,0,0,0,28.8,32.2c10.9,8.6,22.5,16.3,32.3,26.2a103.32,103.32,0,0,1,27.5,51.9A105.13,105.13,0,0,1,328,413.3Z" transform="translate(-72.7 -18.6)"/><path class="cls-8" d="M244.8,244.5A249.06,249.06,0,0,1,105.9,78.4a372.61,372.61,0,0,1,116.8,42.5,185.17,185.17,0,0,0-1.8,49.3C223.4,196.4,230.9,222.5,244.8,244.5Z" transform="translate(-72.7 -18.6)"/><path class="cls-1" d="M439.3,228v1.4h0a206,206,0,0,1-50.9,128.7,280.78,280.78,0,0,0,29.7-129.4,10.61,10.61,0,0,1,21.2-.7Z" transform="translate(-72.7 -18.6)"/><path class="cls-2" d="M377.5,329.5c1.1-3.8-.4-10.2-.9-14a145.14,145.14,0,0,0-2.6-14.4A120.13,120.13,0,0,0,363.7,274c-8-15.2-19.9-26.8-32.1-38.4-32.4-30.7-58-71.9-66-116.2-.3-1.8-.6-3.6-.9-5.5a180.51,180.51,0,0,1,11.5-95.3A286,286,0,0,1,377.5,329.5Z" transform="translate(-72.7 -18.6)"/><path class="cls-3" d="M377.5,329.5a228.91,228.91,0,0,1-49.6,83.7,103.12,103.12,0,0,0-22.2-110.4c-9.7-9.9-21.4-17.6-32.3-26.2a127.69,127.69,0,0,1-28.8-32.2c-13.8-22.1-21.4-48.1-23.9-74.3a185,185,0,0,1,1.8-49.3,178.54,178.54,0,0,1,8.4-31.9,187.25,187.25,0,0,1,45.2-70.3,180.51,180.51,0,0,0-11.5,95.3c.3,1.8.6,3.7.9,5.5,8.1,44.3,33.6,85.5,66,116.2,12.2,11.6,24.1,23.1,32.1,38.4a120.13,120.13,0,0,1,10.3,27.1,98.66,98.66,0,0,1,2.6,14.4C377.1,319.4,378.7,325.8,377.5,329.5Z" transform="translate(-72.7 -18.6)"/><path class="cls-4" d="M307.6,348.7c-13.7,22.2-34.4,37.6-58.7,46.5-16,5.9-32.9,9.3-49.8,12.3-17.6,3.1-35.4,5.8-53.2,7.4s-35.3,1.4-53.1.8q-10-.3-20.1-1.2a966.74,966.74,0,0,0,78-60c1.8-1.4,3.6-2.8,5.5-4.1a131.85,131.85,0,0,1,53.1-21.8c4.1-.7,8.3-1.2,12.5-1.6,2.7-.2,5.4-.3,8.2-.4a130.46,130.46,0,0,1,25,2h.1a149.9,149.9,0,0,1,41.8,13.8A103.52,103.52,0,0,1,307.6,348.7Z" transform="translate(-72.7 -18.6)"/><path class="cls-5" d="M328,413.3a144.79,144.79,0,0,1-108,39.4,342,342,0,0,1-94.8-16.2,348,348,0,0,1-52.5-21.8q10,.9,20.1,1.2c17.8.6,35.3.8,53.1-.8s35.6-4.3,53.2-7.4c16.8-3,33.7-6.3,49.8-12.3,24.2-9,45-24.4,58.7-46.5a59,59,0,0,1,8.6,7.1C330.9,370.5,334.9,394,328,413.3Z" transform="translate(-72.7 -18.6)"/><path class="cls-6" d="M328,413.3a276,276,0,0,1-235.5,77,307.76,307.76,0,0,0,32.7-53.8A342,342,0,0,0,220,452.7,145.18,145.18,0,0,0,328,413.3Z" transform="translate(-72.7 -18.6)"/><path class="cls-7" d="M328,413.3c6.9-19.3,2.9-42.8-11.8-57.4a59,59,0,0,0-8.6-7.1,87.54,87.54,0,0,0-10.7-6.2,149.9,149.9,0,0,0-41.8-13.8H255c-49.2-8.6-94.3-35.3-125-74.7A168.82,168.82,0,0,1,105.9,78.5,249.32,249.32,0,0,0,244.8,244.6a122.39,122.39,0,0,0,28.8,32.2c10.9,8.6,22.5,16.3,32.3,26.2a103.32,103.32,0,0,1,27.5,51.9A105.13,105.13,0,0,1,328,413.3Z" transform="translate(-72.7 -18.6)"/><path class="cls-8" d="M244.8,244.5A249.06,249.06,0,0,1,105.9,78.4a372.61,372.61,0,0,1,116.8,42.5,185.17,185.17,0,0,0-1.8,49.3C223.4,196.4,230.9,222.5,244.8,244.5Z" transform="translate(-72.7 -18.6)"/><path class="cls-1" d="M439.3,228v1.4h0a206,206,0,0,1-50.9,128.7,280.78,280.78,0,0,0,29.7-129.4,10.61,10.61,0,0,1,21.2-.7Z" transform="translate(-72.7 -18.6)"/><path class="cls-2" d="M377.5,329.5c1.1-3.8-.4-10.2-.9-14a145.14,145.14,0,0,0-2.6-14.4A120.13,120.13,0,0,0,363.7,274c-8-15.2-19.9-26.8-32.1-38.4-32.4-30.7-58-71.9-66-116.2-.3-1.8-.6-3.6-.9-5.5a180.51,180.51,0,0,1,11.5-95.3A286,286,0,0,1,377.5,329.5Z" transform="translate(-72.7 -18.6)"/><path class="cls-3" d="M377.5,329.5a228.91,228.91,0,0,1-49.6,83.7,103.12,103.12,0,0,0-22.2-110.4c-9.7-9.9-21.4-17.6-32.3-26.2a127.69,127.69,0,0,1-28.8-32.2c-13.8-22.1-21.4-48.1-23.9-74.3a185,185,0,0,1,1.8-49.3,178.54,178.54,0,0,1,8.4-31.9,187.25,187.25,0,0,1,45.2-70.3,180.51,180.51,0,0,0-11.5,95.3c.3,1.8.6,3.7.9,5.5,8.1,44.3,33.6,85.5,66,116.2,12.2,11.6,24.1,23.1,32.1,38.4a120.13,120.13,0,0,1,10.3,27.1,98.66,98.66,0,0,1,2.6,14.4C377.1,319.4,378.7,325.8,377.5,329.5Z" transform="translate(-72.7 -18.6)"/><path class="cls-4" d="M307.6,348.7c-13.7,22.2-34.4,37.6-58.7,46.5-16,5.9-32.9,9.3-49.8,12.3-17.6,3.1-35.4,5.8-53.2,7.4s-35.3,1.4-53.1.8q-10-.3-20.1-1.2a966.74,966.74,0,0,0,78-60c1.8-1.4,3.6-2.8,5.5-4.1a131.85,131.85,0,0,1,53.1-21.8c4.1-.7,8.3-1.2,12.5-1.6,2.7-.2,5.4-.3,8.2-.4a130.46,130.46,0,0,1,25,2h.1a149.9,149.9,0,0,1,41.8,13.8A103.52,103.52,0,0,1,307.6,348.7Z" transform="translate(-72.7 -18.6)"/><path class="cls-5" d="M328,413.3a144.79,144.79,0,0,1-108,39.4,342,342,0,0,1-94.8-16.2,348,348,0,0,1-52.5-21.8q10,.9,20.1,1.2c17.8.6,35.3.8,53.1-.8s35.6-4.3,53.2-7.4c16.8-3,33.7-6.3,49.8-12.3,24.2-9,45-24.4,58.7-46.5a59,59,0,0,1,8.6,7.1C330.9,370.5,334.9,394,328,413.3Z" transform="translate(-72.7 -18.6)"/><path class="cls-6" d="M328,413.3a276,276,0,0,1-235.5,77,307.76,307.76,0,0,0,32.7-53.8A342,342,0,0,0,220,452.7,145.18,145.18,0,0,0,328,413.3Z" transform="translate(-72.7 -18.6)"/><path class="cls-7" d="M328,413.3c6.9-19.3,2.9-42.8-11.8-57.4a59,59,0,0,0-8.6-7.1,87.54,87.54,0,0,0-10.7-6.2,149.9,149.9,0,0,0-41.8-13.8H255c-49.2-8.6-94.3-35.3-125-74.7A168.82,168.82,0,0,1,105.9,78.5,249.32,249.32,0,0,0,244.8,244.6a122.39,122.39,0,0,0,28.8,32.2c10.9,8.6,22.5,16.3,32.3,26.2a103.32,103.32,0,0,1,27.5,51.9A105.13,105.13,0,0,1,328,413.3Z" transform="translate(-72.7 -18.6)"/><path class="cls-8" d="M244.8,244.5A249.06,249.06,0,0,1,105.9,78.4a372.61,372.61,0,0,1,116.8,42.5,185.17,185.17,0,0,0-1.8,49.3C223.4,196.4,230.9,222.5,244.8,244.5Z" transform="translate(-72.7 -18.6)"/><path class="cls-1" d="M439.3,228v1.4h0a206,206,0,0,1-50.9,128.7,280.78,280.78,0,0,0,29.7-129.4,10.61,10.61,0,0,1,21.2-.7Z" transform="translate(-72.7 -18.6)"/><path class="cls-2" d="M377.5,329.5c1.1-3.8-.4-10.2-.9-14a145.14,145.14,0,0,0-2.6-14.4A120.13,120.13,0,0,0,363.7,274c-8-15.2-19.9-26.8-32.1-38.4-32.4-30.7-58-71.9-66-116.2-.3-1.8-.6-3.6-.9-5.5a180.51,180.51,0,0,1,11.5-95.3A286,286,0,0,1,377.5,329.5Z" transform="translate(-72.7 -18.6)"/><path class="cls-3" d="M377.5,329.5a228.91,228.91,0,0,1-49.6,83.7,103.12,103.12,0,0,0-22.2-110.4c-9.7-9.9-21.4-17.6-32.3-26.2a127.69,127.69,0,0,1-28.8-32.2c-13.8-22.1-21.4-48.1-23.9-74.3a185,185,0,0,1,1.8-49.3,178.54,178.54,0,0,1,8.4-31.9,187.25,187.25,0,0,1,45.2-70.3,180.51,180.51,0,0,0-11.5,95.3c.3,1.8.6,3.7.9,5.5,8.1,44.3,33.6,85.5,66,116.2,12.2,11.6,24.1,23.1,32.1,38.4a120.13,120.13,0,0,1,10.3,27.1,98.66,98.66,0,0,1,2.6,14.4C377.1,319.4,378.7,325.8,377.5,329.5Z" transform="translate(-72.7 -18.6)"/><path class="cls-4" d="M307.6,348.7c-13.7,22.2-34.4,37.6-58.7,46.5-16,5.9-32.9,9.3-49.8,12.3-17.6,3.1-35.4,5.8-53.2,7.4s-35.3,1.4-53.1.8q-10-.3-20.1-1.2a966.74,966.74,0,0,0,78-60c1.8-1.4,3.6-2.8,5.5-4.1a131.85,131.85,0,0,1,53.1-21.8c4.1-.7,8.3-1.2,12.5-1.6,2.7-.2,5.4-.3,8.2-.4a130.46,130.46,0,0,1,25,2h.1a149.9,149.9,0,0,1,41.8,13.8A103.52,103.52,0,0,1,307.6,348.7Z" transform="translate(-72.7 -18.6)"/><path class="cls-5" d="M328,413.3a144.79,144.79,0,0,1-108,39.4,342,342,0,0,1-94.8-16.2,348,348,0,0,1-52.5-21.8q10,.9,20.1,1.2c17.8.6,35.3.8,53.1-.8s35.6-4.3,53.2-7.4c16.8-3,33.7-6.3,49.8-12.3,24.2-9,45-24.4,58.7-46.5a59,59,0,0,1,8.6,7.1C330.9,370.5,334.9,394,328,413.3Z" transform="translate(-72.7 -18.6)"/><path class="cls-6" d="M328,413.3a276,276,0,0,1-235.5,77,307.76,307.76,0,0,0,32.7-53.8A342,342,0,0,0,220,452.7,145.18,145.18,0,0,0,328,413.3Z" transform="translate(-72.7 -18.6)"/><path class="cls-7" d="M328,413.3c6.9-19.3,2.9-42.8-11.8-57.4a59,59,0,0,0-8.6-7.1,87.54,87.54,0,0,0-10.7-6.2,149.9,149.9,0,0,0-41.8-13.8H255c-49.2-8.6-94.3-35.3-125-74.7A168.82,168.82,0,0,1,105.9,78.5,249.32,249.32,0,0,0,244.8,244.6a122.39,122.39,0,0,0,28.8,32.2c10.9,8.6,22.5,16.3,32.3,26.2a103.32,103.32,0,0,1,27.5,51.9A105.13,105.13,0,0,1,328,413.3Z" transform="translate(-72.7 -18.6)"/><path class="cls-8" d="M244.8,244.5A249.06,249.06,0,0,1,105.9,78.4a372.61,372.61,0,0,1,116.8,42.5,185.17,185.17,0,0,0-1.8,49.3C223.4,196.4,230.9,222.5,244.8,244.5Z" transform="translate(-72.7 -18.6)"/><path class="cls-1" d="M439.3,228v1.4h0a206,206,0,0,1-50.9,128.7,280.78,280.78,0,0,0,29.7-129.4,10.61,10.61,0,0,1,21.2-.7Z" transform="translate(-72.7 -18.6)"/><path class="cls-2" d="M377.5,329.5c1.1-3.8-.4-10.2-.9-14a145.14,145.14,0,0,0-2.6-14.4A120.13,120.13,0,0,0,363.7,274c-8-15.2-19.9-26.8-32.1-38.4-32.4-30.7-58-71.9-66-116.2-.3-1.8-.6-3.6-.9-5.5a180.51,180.51,0,0,1,11.5-95.3A286,286,0,0,1,377.5,329.5Z" transform="translate(-72.7 -18.6)"/><path class="cls-3" d="M377.5,329.5a228.91,228.91,0,0,1-49.6,83.7,103.12,103.12,0,0,0-22.2-110.4c-9.7-9.9-21.4-17.6-32.3-26.2a127.69,127.69,0,0,1-28.8-32.2c-13.8-22.1-21.4-48.1-23.9-74.3a185,185,0,0,1,1.8-49.3,178.54,178.54,0,0,1,8.4-31.9,187.25,187.25,0,0,1,45.2-70.3,180.51,180.51,0,0,0-11.5,95.3c.3,1.8.6,3.7.9,5.5,8.1,44.3,33.6,85.5,66,116.2,12.2,11.6,24.1,23.1,32.1,38.4a120.13,120.13,0,0,1,10.3,27.1,98.66,98.66,0,0,1,2.6,14.4C377.1,319.4,378.7,325.8,377.5,329.5Z" transform="translate(-72.7 -18.6)"/><path class="cls-4" d="M307.6,348.7c-13.7,22.2-34.4,37.6-58.7,46.5-16,5.9-32.9,9.3-49.8,12.3-17.6,3.1-35.4,5.8-53.2,7.4s-35.3,1.4-53.1.8q-10-.3-20.1-1.2a966.74,966.74,0,0,0,78-60c1.8-1.4,3.6-2.8,5.5-4.1a131.85,131.85,0,0,1,53.1-21.8c4.1-.7,8.3-1.2,12.5-1.6,2.7-.2,5.4-.3,8.2-.4a130.46,130.46,0,0,1,25,2h.1a149.9,149.9,0,0,1,41.8,13.8A103.52,103.52,0,0,1,307.6,348.7Z" transform="translate(-72.7 -18.6)"/><path class="cls-5" d="M328,413.3a144.79,144.79,0,0,1-108,39.4,342,342,0,0,1-94.8-16.2,348,348,0,0,1-52.5-21.8q10,.9,20.1,1.2c17.8.6,35.3.8,53.1-.8s35.6-4.3,53.2-7.4c16.8-3,33.7-6.3,49.8-12.3,24.2-9,45-24.4,58.7-46.5a59,59,0,0,1,8.6,7.1C330.9,370.5,334.9,394,328,413.3Z" transform="translate(-72.7 -18.6)"/><path class="cls-6" d="M328,413.3a276,276,0,0,1-235.5,77,307.76,307.76,0,0,0,32.7-53.8A342,342,0,0,0,220,452.7,145.18,145.18,0,0,0,328,413.3Z" transform="translate(-72.7 -18.6)"/><path class="cls-7" d="M328,413.3c6.9-19.3,2.9-42.8-11.8-57.4a59,59,0,0,0-8.6-7.1,87.54,87.54,0,0,0-10.7-6.2,149.9,149.9,0,0,0-41.8-13.8H255c-49.2-8.6-94.3-35.3-125-74.7A168.82,168.82,0,0,1,105.9,78.5,249.32,249.32,0,0,0,244.8,244.6a122.39,122.39,0,0,0,28.8,32.2c10.9,8.6,22.5,16.3,32.3,26.2a103.32,103.32,0,0,1,27.5,51.9A105.13,105.13,0,0,1,328,413.3Z" transform="translate(-72.7 -18.6)"/><path class="cls-8" d="M244.8,244.5A249.06,249.06,0,0,1,105.9,78.4a372.61,372.61,0,0,1,116.8,42.5,185.17,185.17,0,0,0-1.8,49.3C223.4,196.4,230.9,222.5,244.8,244.5Z" transform="translate(-72.7 -18.6)"/><path class="cls-1" d="M439.3,228v1.4h0a206,206,0,0,1-50.9,128.7,280.78,280.78,0,0,0,29.7-129.4,10.61,10.61,0,0,1,21.2-.7Z" transform="translate(-72.7 -18.6)"/><path class="cls-2" d="M377.5,329.5c1.1-3.8-.4-10.2-.9-14a145.14,145.14,0,0,0-2.6-14.4A120.13,120.13,0,0,0,363.7,274c-8-15.2-19.9-26.8-32.1-38.4-32.4-30.7-58-71.9-66-116.2-.3-1.8-.6-3.6-.9-5.5a180.51,180.51,0,0,1,11.5-95.3A286,286,0,0,1,377.5,329.5Z" transform="translate(-72.7 -18.6)"/><path class="cls-3" d="M377.5,329.5a228.91,228.91,0,0,1-49.6,83.7,103.12,103.12,0,0,0-22.2-110.4c-9.7-9.9-21.4-17.6-32.3-26.2a127.69,127.69,0,0,1-28.8-32.2c-13.8-22.1-21.4-48.1-23.9-74.3a185,185,0,0,1,1.8-49.3,178.54,178.54,0,0,1,8.4-31.9,187.25,187.25,0,0,1,45.2-70.3,180.51,180.51,0,0,0-11.5,95.3c.3,1.8.6,3.7.9,5.5,8.1,44.3,33.6,85.5,66,116.2,12.2,11.6,24.1,23.1,32.1,38.4a120.13,120.13,0,0,1,10.3,27.1,98.66,98.66,0,0,1,2.6,14.4C377.1,319.4,378.7,325.8,377.5,329.5Z" transform="translate(-72.7 -18.6)"/><path class="cls-4" d="M307.6,348.7c-13.7,22.2-34.4,37.6-58.7,46.5-16,5.9-32.9,9.3-49.8,12.3-17.6,3.1-35.4,5.8-53.2,7.4s-35.3,1.4-53.1.8q-10-.3-20.1-1.2a966.74,966.74,0,0,0,78-60c1.8-1.4,3.6-2.8,5.5-4.1a131.85,131.85,0,0,1,53.1-21.8c4.1-.7,8.3-1.2,12.5-1.6,2.7-.2,5.4-.3,8.2-.4a130.46,130.46,0,0,1,25,2h.1a149.9,149.9,0,0,1,41.8,13.8A103.52,103.52,0,0,1,307.6,348.7Z" transform="translate(-72.7 -18.6)"/><path class="cls-5" d="M328,413.3a144.79,144.79,0,0,1-108,39.4,342,342,0,0,1-94.8-16.2,348,348,0,0,1-52.5-21.8q10,.9,20.1,1.2c17.8.6,35.3.8,53.1-.8s35.6-4.3,53.2-7.4c16.8-3,33.7-6.3,49.8-12.3,24.2-9,45-24.4,58.7-46.5a59,59,0,0,1,8.6,7.1C330.9,370.5,334.9,394,328,413.3Z" transform="translate(-72.7 -18.6)"/><path class="cls-6" d="M328,413.3a276,276,0,0,1-235.5,77,307.76,307.76,0,0,0,32.7-53.8A342,342,0,0,0,220,452.7,145.18,145.18,0,0,0,328,413.3Z" transform="translate(-72.7 -18.6)"/><path class="cls-7" d="M328,413.3c6.9-19.3,2.9-42.8-11.8-57.4a59,59,0,0,0-8.6-7.1,87.54,87.54,0,0,0-10.7-6.2,149.9,149.9,0,0,0-41.8-13.8H255c-49.2-8.6-94.3-35.3-125-74.7A168.82,168.82,0,0,1,105.9,78.5,249.32,249.32,0,0,0,244.8,244.6a122.39,122.39,0,0,0,28.8,32.2c10.9,8.6,22.5,16.3,32.3,26.2a103.32,103.32,0,0,1,27.5,51.9A105.13,105.13,0,0,1,328,413.3Z" transform="translate(-72.7 -18.6)"/><path class="cls-8" d="M244.8,244.5A249.06,249.06,0,0,1,105.9,78.4a372.61,372.61,0,0,1,116.8,42.5,185.17,185.17,0,0,0-1.8,49.3C223.4,196.4,230.9,222.5,244.8,244.5Z" transform="translate(-72.7 -18.6)"/></svg>