<svg id="图层_1" data-name="图层 1" xmlns="http://www.w3.org/2000/svg" viewBox="0 0 512 512"><defs><style>.cls-1{fill:#c27bca;}.cls-2{fill:#0099e1;}.cls-3{fill:#ffcb10;}.cls-4{fill:#fb2e34;}.cls-5{fill:#e97d17;}</style></defs><path class="cls-1" d="M351,302.48a169.24,169.24,0,0,1-74.23,0,178.85,178.85,0,0,1,38.64-49.72A168.77,168.77,0,0,1,351,302.48Z"/><path class="cls-2" d="M466.69,209.55A168.92,168.92,0,0,1,351,302.48a168.77,168.77,0,0,0-35.59-49.72A179,179,0,0,1,466.69,209.55Z"/><path class="cls-3" d="M201,263.29A199.6,199.6,0,0,1,45.31,302.48,168.86,168.86,0,0,1,161,209.55,168.29,168.29,0,0,0,201,263.29Z"/><path class="cls-4" d="M315.39,252.76a178.85,178.85,0,0,0-38.64,49.72A168.84,168.84,0,0,1,201,263.29a199.35,199.35,0,0,0,46.09-50.63A168.69,168.69,0,0,1,315.39,252.76Z"/><path class="cls-5" d="M247.06,212.66A199.35,199.35,0,0,1,201,263.29,168.29,168.29,0,0,1,161,209.55a168.29,168.29,0,0,1,86,3.11Z"/></svg>