<?xml version="1.0" encoding="utf-8"?>
<!-- Generator: Adobe Illustrator 25.2.3, SVG Export Plug-In . SVG Version: 6.00 Build 0)  -->
<svg version="1.1" id="图层_1" xmlns="http://www.w3.org/2000/svg" xmlns:xlink="http://www.w3.org/1999/xlink" x="0px" y="0px"
	 viewBox="0 0 512 512" style="enable-background:new 0 0 512 512;" xml:space="preserve">
<style type="text/css">
	.st0{fill:#C27BCA;}
	.st1{fill:#0099E1;}
	.st2{fill:#FFCB10;}
	.st3{fill:#FB2E34;}
	.st4{fill:#E97D17;}
	.st5{display:none;}
	.st6{display:inline;fill:#CC2828;}
	.st7{display:inline;fill:#0AA858;}
	.st8{display:inline;fill:#009DDA;}
</style>
<image style="overflow:visible;" width="800" height="800" xlink:href="../ww1J2aQbdH_small.jpg"  transform="matrix(1 0 0 1 -1180.8951 -199.986)">
</image>
<g>
	<path class="st0" d="M357.8,305.8c-12.9,2.9-26.2,4.4-39.8,4.4c-13.6,0-26.9-1.5-39.8-4.4c10.8-20.5,24.9-38.4,41.4-53.3
		C335.3,267.6,348.3,285.5,357.8,305.8z"/>
	<path class="st1" d="M481.9,206.2c-24.1,51.3-70.3,87.5-124.1,99.7c-9.6-20.3-22.6-38.3-38.2-53.3
		C362.8,213.7,422.4,195.6,481.9,206.2z"/>
	<path class="st2" d="M197,263.8c-46.5,36.1-106.8,52.2-166.9,42c24.1-51.2,70.3-87.5,124.1-99.7C164.6,228.5,179.3,248,197,263.8z"
		/>
	<path class="st3" d="M319.7,252.5c-16.5,14.9-30.7,32.8-41.4,53.3c-30.4-6.8-58.4-21.4-81.3-42c19.1-14.9,35.9-33.1,49.4-54.3
		C273.9,217.8,299.1,232.6,319.7,252.5z"/>
	<path class="st4" d="M246.4,209.5c-13.5,21.2-30.3,39.4-49.4,54.3c-17.7-15.8-32.4-35.3-42.8-57.6c12.9-2.9,26.2-4.5,39.8-4.5
		C212,201.7,229.7,204.4,246.4,209.5z"/>
</g>
<g class="st5">
	<path class="st6" d="M352,156.9c-75.8-5.7-150.6,19.7-207.3,70.5c45.9-64.8,118.7-105.2,197.9-109.9
		C346.4,130.5,349.6,143.6,352,156.9z"/>
	<path class="st6" d="M358.1,215.2c-70.3,0.2-138,20-196.1,55.8c-16.7,10.2-32.5,21.7-47.5,34.4c-10.3,8.7-20.1,18-29.4,27.9
		c-16,16.8-30.5,35.3-43.3,55.2c58.4-124,174.6-210.8,310.1-231.6C355.6,176.2,357.6,195.7,358.1,215.2z"/>
	<path class="st7" d="M470.2,458.2c-136.6,11.4-269.9-45.8-355.7-152.8c14.9-12.8,30.8-24.2,47.5-34.4
		c35.3,60.8,86.3,109.4,146.3,141.9c17.2,9.4,35,17.3,53.5,23.9v0c2,0.7,4,1.4,5.9,2c1.9,0.6,3.8,1.3,5.7,1.9
		c1.7,0.5,3.5,1.1,5.2,1.6c1.6,0.5,3.2,0.9,4.8,1.4c2.5,0.7,4.9,1.4,7.5,2.1c3.3,0.9,6.5,1.7,9.8,2.5
		C423.3,453.7,446.5,457,470.2,458.2z"/>
	<path class="st7" d="M279.2,449.7c-79.1-7.4-150.4-50.2-194.1-116.4c9.3-9.9,19.1-19.2,29.4-27.9C147.5,373.9,207,426,279.2,449.7z
		"/>
	<path class="st8" d="M361.8,436.7c-18.5-6.5-36.4-14.5-53.5-23.9c34.9-61,51.6-129.5,49.8-197.7c-0.5-19.5-2.5-39-6.1-58.3
		c-2.4-13.3-5.5-26.4-9.4-39.4c-6.6-22.2-15.4-44-26.2-65.1C394.6,165,411.6,309,361.8,436.7z"/>
	<path class="st8" d="M400.7,448.3c-3.3-0.8-6.6-1.6-9.8-2.5c-2.5-0.6-5-1.3-7.5-2.1c-1.6-0.4-3.2-0.9-4.8-1.4
		c-1.7-0.5-3.5-1.1-5.2-1.6c-1.9-0.6-3.8-1.2-5.7-1.9c-2-0.6-4-1.3-5.9-2v0c42.8-62.8,58.2-140.3,42.6-214.7
		C437.6,294.2,436.2,377.4,400.7,448.3z"/>
</g>
</svg>
