<svg id="图层_1" data-name="图层 1" xmlns="http://www.w3.org/2000/svg" viewBox="0 0 512 512"><defs><style>.cls-1{fill:#c27bca;}.cls-2{fill:#0099e1;}.cls-3{fill:#ffcb10;}.cls-4{fill:#fb2e34;}.cls-5{fill:#e97d17;}</style></defs><path class="cls-1" d="M351,246.52a169.24,169.24,0,0,1-74.23,0,178.7,178.7,0,0,1,38.64-49.72A168.77,168.77,0,0,1,351,246.52Z"/><path class="cls-2" d="M466.69,153.58A168.91,168.91,0,0,1,351,246.52a168.77,168.77,0,0,0-35.59-49.72A179,179,0,0,1,466.69,153.58Z"/><path class="cls-3" d="M201,207.33A199.64,199.64,0,0,1,45.31,246.52,168.88,168.88,0,0,1,161,153.58,168.22,168.22,0,0,0,201,207.33Z"/><path class="cls-4" d="M315.39,196.8a178.7,178.7,0,0,0-38.64,49.72A168.84,168.84,0,0,1,201,207.33a199.68,199.68,0,0,0,46.09-50.63A168.58,168.58,0,0,1,315.39,196.8Z"/><path class="cls-5" d="M247.06,156.7A199.68,199.68,0,0,1,201,207.33,168.22,168.22,0,0,1,161,153.58a168.17,168.17,0,0,1,86,3.12Z"/><path class="cls-1" d="M161,358.45a169.24,169.24,0,0,0,74.23,0,178.7,178.7,0,0,0-38.64-49.72A168.64,168.64,0,0,0,161,358.45Z"/><path class="cls-2" d="M45.31,265.51A168.94,168.94,0,0,0,161,358.45a168.64,168.64,0,0,1,35.59-49.72A179,179,0,0,0,45.31,265.51Z"/><path class="cls-3" d="M311,319.26a199.68,199.68,0,0,0,155.66,39.19A168.85,168.85,0,0,0,351,265.51,168.22,168.22,0,0,1,311,319.26Z"/><path class="cls-4" d="M196.61,308.73a178.7,178.7,0,0,1,38.64,49.72A168.84,168.84,0,0,0,311,319.26a199.56,199.56,0,0,1-46.09-50.64A168.71,168.71,0,0,0,196.61,308.73Z"/><path class="cls-5" d="M264.94,268.62A199.56,199.56,0,0,0,311,319.26a168.22,168.22,0,0,0,40-53.75,168.29,168.29,0,0,0-86,3.11Z"/></svg>