<?xml version="1.0" encoding="utf-8"?>
<!-- Generator: Adobe Illustrator 25.2.3, SVG Export Plug-In . SVG Version: 6.00 Build 0)  -->
<svg version="1.1" id="图层_1" xmlns="http://www.w3.org/2000/svg" xmlns:xlink="http://www.w3.org/1999/xlink" x="0px" y="0px"
	 viewBox="0 0 512 512" style="enable-background:new 0 0 512 512;" xml:space="preserve">
<style type="text/css">
	.st0{display:none;}
	.st1{display:inline;fill:#3EBEF9;}
	.st2{display:inline;fill:#0F66D9;}
	.st3{fill:#F0B710;}
	.st4{fill:#E66291;}
	.st5{fill:#C3ABF0;}
</style>
<g class="st0">
	<path class="st1" d="M410.2,88.2c0,26.8-10.8,51-28.4,68.5c-17.5,17.5-41.7,28.4-68.5,28.4h-28.8v141.9H224
		c-64.1-16.8-108.3-75.6-106.6-141.9c0-33.2,13.5-63.3,35.2-85c21.7-21.7,51.8-35.2,85-35.2h149.4C399.8,64.9,410.2,75.3,410.2,88.2
		z"/>
	<path class="st2" d="M393.2,327c0.3,31.2-10.7,61.9-33.7,85c-21.7,21.7-51.8,35.2-85,35.2H125.1c-12.9,0-23.3-10.4-23.3-23.3
		c0-26.7,10.8-51,28.4-68.5c17.5-17.5,41.8-28.4,68.5-28.4h85.8V185.1c0,0,7.5,0,7.5,0c4.3,0,11.7,5.4,15.5,7.4
		c5.2,2.8,10.2,5.9,15,9.3c9.6,6.6,18.5,14.2,26.5,22.7c16,16.8,28.4,37,36.2,58.8C390.4,297.5,393,312.3,393.2,327z"/>
</g>
<g>
	<path class="st3" d="M356.8,430.8H174.3c-46.9,0-84.9-38-84.9-84.9c0.3-13.4,3.7-26.6,10-38.5c17.2,16.3,38.1,27.9,60.7,34
		c12,3.2,24.4,4.5,36.7,4.5h61.4c17.2,0,33.5,7.6,44.6,20.8L356.8,430.8z"/>
	<path class="st4" d="M146,81.2h182.5c46.9,0,84.9,38,84.9,84.9c-0.3,13.4-3.7,26.6-10,38.5c-17.2-16.3-38.1-27.9-60.7-34
		c-12-3.2-24.4-4.5-36.7-4.5h-61.4c-17.2,0-33.5-7.6-44.6-20.8L146,81.2z"/>
	<path class="st5" d="M388.7,430.8c-12.2-15.2-24.4-30.5-36.5-45.8c-20.8-26.1-38.4-55.1-70.1-69c-17.4-7.6-36-11.6-54.4-16.4
		c-25.7-6.7-51.3-15.1-73.9-29.2c-27.4-17-54.1-44.7-64.8-75.7c-4.5-13.1-5.8-27.2-4.9-41.1c1.1-17.3,5.9-33.9,16.7-47.7
		c1.5-1.9,19.4-22,19.7-21.7c15.7,20.9,32,41.6,46.8,63.1c13.3,19.3,27.9,38.3,46.7,52.6c3.5,2.7,7.2,5.2,11,7.5
		c29.3,17.6,64.5,21.3,97.4,30.2c42.4,11.6,79.7,42,98.4,81.9c8.4,17.9,10.1,37.2,4.1,56.1c-3.8,11.9-10,22.9-17.3,32.9
		C406,410.6,388.8,431,388.7,430.8z"/>
</g>
</svg>
